# xmcd
#
# Track frame offsets:
#	150
#	16099
#	30085
#	47733
#	64943
#	83879
#	101620
#	119585
#	137154
#	152742
#	168346
#	188498
#	203933
#	221579
#	236095
#	250005
#	267183
#	284595
#
# Disc length: 4024
#
# Revision: 1
# Processed by: cddbd v1.5.1PL0 Copyright (c) Steve Scherf et al.
# Submitted via: CDex 1.51
# Normalized: r0:DSETVAR2
#
DISCID=f90fb612
DTITLE=Various Artist - Air Play 123
DYEAR=1900
DGENRE=New Age
TTITLE0=Elvis Vs JXL - Little less Conversation
TTITLE1=Britney Spears - I Love Rocknroll
TTITLE2=Bachelor Girl - I'm Just a Girl
TTITLE3=Nelly - HotIn Herre
TTITLE4=P Diddy - I Need A Girl
TTITLE5=Taxi Ride - Creeping Up Slowly
TTITLE6=Angie Stone - Wish I Didnt Miss You
TTITLE7=Will Smith - Black Suits Comin
TTITLE8=Fat Joe - Thuggin
TTITLE9=Alcazar - Dont You want Me
TTITLE10=Westlife - Bop bop baby
TTITLE11=A1 - Caught in the Middle
TTITLE12=Libertyx - Just a Little
TTITLE13=Sophie Ellis Bextor - Get Over You
TTITLE14=Shake Down - At Night
TTITLE15=Blur - Fly by it
TTITLE16=Paul Okenfold - Southern Sun
TTITLE17=The Whitlams - Fall For You
EXTD=
EXTT0=
EXTT1=
EXTT2=
EXTT3=
EXTT4=
EXTT5=
EXTT6=
EXTT7=
EXTT8=
EXTT9=
EXTT10=
EXTT11=
EXTT12=
EXTT13=
EXTT14=
EXTT15=
EXTT16=
EXTT17=
PLAYORDER=
